<?xml version="1.0" encoding="utf-8"?>
<!-- Generator: Adobe Illustrator 15.0.2, SVG Export Plug-In . SVG Version: 6.00 Build 0)  -->
<!DOCTYPE svg PUBLIC "-//W3C//DTD SVG 1.1//EN" "http://www.w3.org/Graphics/SVG/1.1/DTD/svg11.dtd">
<svg version="1.1" id="Ebene_1" xmlns="http://www.w3.org/2000/svg" xmlns:xlink="http://www.w3.org/1999/xlink" x="0px" y="0px"
	 width="253px" height="291px" viewBox="0 0 253 291" enable-background="new 0 0 253 291" xml:space="preserve">
<title>QR Code</title>
<desc>W1-1.04a</desc>
<rect fill="#FFFFFF" width="253" height="291"/>
<g id="elements">
	<path d="M11,11h11v11H11V11z M22,11h11v11H22V11z M33,11h11v11H33V11z M44,11h11v11H44V11z M55,11h11v11H55V11z M66,11h11v11H66V11
		z M77,11h11v11H77V11z M110,11h11v11h-11V11z M143,11h11v11h-11V11z M165,11h11v11h-11V11z M176,11h11v11h-11V11z M187,11h11v11
		h-11V11z M198,11h11v11h-11V11z M209,11h11v11h-11V11z M220,11h11v11h-11V11z M231,11h11v11h-11V11z M11,22h11v11H11V22z M77,22h11
		v11H77V22z M99,22h11v11H99V22z M132,22h11v11h-11V22z M165,22h11v11h-11V22z M231,22h11v11h-11V22z M11,33h11v11H11V33z M33,33h11
		v11H33V33z M44,33h11v11H44V33z M55,33h11v11H55V33z M77,33h11v11H77V33z M110,33h11v11h-11V33z M165,33h11v11h-11V33z M187,33h11
		v11h-11V33z M198,33h11v11h-11V33z M209,33h11v11h-11V33z M231,33h11v11h-11V33z M11,44h11v11H11V44z M33,44h11v11H33V44z M44,44
		h11v11H44V44z M55,44h11v11H55V44z M77,44h11v11H77V44z M99,44h11v11H99V44z M132,44h11v11h-11V44z M165,44h11v11h-11V44z M187,44
		h11v11h-11V44z M198,44h11v11h-11V44z M209,44h11v11h-11V44z M231,44h11v11h-11V44z M11,55h11v11H11V55z M33,55h11v11H33V55z
		 M44,55h11v11H44V55z M55,55h11v11H55V55z M77,55h11v11H77V55z M121,55h11v11h-11V55z M132,55h11v11h-11V55z M143,55h11v11h-11V55z
		 M165,55h11v11h-11V55z M187,55h11v11h-11V55z M198,55h11v11h-11V55z M209,55h11v11h-11V55z M231,55h11v11h-11V55z M11,66h11v11H11
		V66z M77,66h11v11H77V66z M99,66h11v11H99V66z M110,66h11v11h-11V66z M121,66h11v11h-11V66z M143,66h11v11h-11V66z M165,66h11v11
		h-11V66z M231,66h11v11h-11V66z M11,77h11v11H11V77z M22,77h11v11H22V77z M33,77h11v11H33V77z M44,77h11v11H44V77z M55,77h11v11H55
		V77z M66,77h11v11H66V77z M77,77h11v11H77V77z M99,77h11v11H99V77z M121,77h11v11h-11V77z M143,77h11v11h-11V77z M165,77h11v11h-11
		V77z M176,77h11v11h-11V77z M187,77h11v11h-11V77z M198,77h11v11h-11V77z M209,77h11v11h-11V77z M220,77h11v11h-11V77z M231,77h11
		v11h-11V77z M121,88h11v11h-11V88z M132,88h11v11h-11V88z M143,88h11v11h-11V88z M11,99h11v11H11V99z M22,99h11v11H22V99z M33,99
		h11v11H33V99z M44,99h11v11H44V99z M55,99h11v11H55V99z M77,99h11v11H77V99z M88,99h11v11H88V99z M99,99h11v11H99V99z M110,99h11
		v11h-11V99z M143,99h11v11h-11V99z M154,99h11v11h-11V99z M176,99h11v11h-11V99z M198,99h11v11h-11V99z M220,99h11v11h-11V99z
		 M22,110h11v11H22V110z M88,110h11v11H88V110z M99,110h11v11H99V110z M121,110h11v11h-11V110z M143,110h11v11h-11V110z M176,110h11
		v11h-11V110z M187,110h11v11h-11V110z M209,110h11v11h-11V110z M220,110h11v11h-11V110z M231,110h11v11h-11V110z M11,121h11v11H11
		V121z M22,121h11v11H22V121z M33,121h11v11H33V121z M77,121h11v11H77V121z M132,121h11v11h-11V121z M154,121h11v11h-11V121z
		 M198,121h11v11h-11V121z M209,121h11v11h-11V121z M11,132h11v11H11V132z M22,132h11v11H22V132z M33,132h11v11H33V132z M88,132h11
		v11H88V132z M99,132h11v11H99V132z M176,132h11v11h-11V132z M209,132h11v11h-11V132z M220,132h11v11h-11V132z M231,132h11v11h-11
		V132z M44,143h11v11H44V143z M77,143h11v11H77V143z M110,143h11v11h-11V143z M121,143h11v11h-11V143z M132,143h11v11h-11V143z
		 M220,143h11v11h-11V143z M99,154h11v11H99V154z M132,154h11v11h-11V154z M143,154h11v11h-11V154z M154,154h11v11h-11V154z
		 M165,154h11v11h-11V154z M187,154h11v11h-11V154z M198,154h11v11h-11V154z M220,154h11v11h-11V154z M11,165h11v11H11V165z M22,165
		h11v11H22V165z M33,165h11v11H33V165z M44,165h11v11H44V165z M55,165h11v11H55V165z M66,165h11v11H66V165z M77,165h11v11H77V165z
		 M99,165h11v11H99V165z M121,165h11v11h-11V165z M143,165h11v11h-11V165z M165,165h11v11h-11V165z M176,165h11v11h-11V165z
		 M198,165h11v11h-11V165z M209,165h11v11h-11V165z M220,165h11v11h-11V165z M11,176h11v11H11V176z M77,176h11v11H77V176z M132,176
		h11v11h-11V176z M143,176h11v11h-11V176z M154,176h11v11h-11V176z M165,176h11v11h-11V176z M176,176h11v11h-11V176z M209,176h11v11
		h-11V176z M11,187h11v11H11V187z M33,187h11v11H33V187z M44,187h11v11H44V187z M55,187h11v11H55V187z M77,187h11v11H77V187z
		 M99,187h11v11H99V187z M110,187h11v11h-11V187z M143,187h11v11h-11V187z M176,187h11v11h-11V187z M198,187h11v11h-11V187z
		 M231,187h11v11h-11V187z M11,198h11v11H11V198z M33,198h11v11H33V198z M44,198h11v11H44V198z M55,198h11v11H55V198z M77,198h11v11
		H77V198z M99,198h11v11H99V198z M143,198h11v11h-11V198z M187,198h11v11h-11V198z M209,198h11v11h-11V198z M11,209h11v11H11V209z
		 M33,209h11v11H33V209z M44,209h11v11H44V209z M55,209h11v11H55V209z M77,209h11v11H77V209z M99,209h11v11H99V209z M121,209h11v11
		h-11V209z M132,209h11v11h-11V209z M154,209h11v11h-11V209z M176,209h11v11h-11V209z M198,209h11v11h-11V209z M209,209h11v11h-11
		V209z M11,220h11v11H11V220z M77,220h11v11H77V220z M99,220h11v11H99V220z M110,220h11v11h-11V220z M121,220h11v11h-11V220z
		 M176,220h11v11h-11V220z M187,220h11v11h-11V220z M209,220h11v11h-11V220z M11,231h11v11H11V231z M22,231h11v11H22V231z M33,231
		h11v11H33V231z M44,231h11v11H44V231z M55,231h11v11H55V231z M66,231h11v11H66V231z M77,231h11v11H77V231z M99,231h11v11H99V231z
		 M132,231h11v11h-11V231z M154,231h11v11h-11V231z M187,231h11v11h-11V231z M220,231h11v11h-11V231z"/>
</g>
<text transform="matrix(1 0 0 1 91 279)" font-family="'MyriadPro-Regular'" font-size="21">W1-1.86</text>
</svg>
