<?xml version="1.0" encoding="utf-8"?>
<!-- Generator: Adobe Illustrator 15.0.2, SVG Export Plug-In . SVG Version: 6.00 Build 0)  -->
<!DOCTYPE svg PUBLIC "-//W3C//DTD SVG 1.1//EN" "http://www.w3.org/Graphics/SVG/1.1/DTD/svg11.dtd">
<svg version="1.1" id="Ebene_1" xmlns="http://www.w3.org/2000/svg" xmlns:xlink="http://www.w3.org/1999/xlink" x="0px" y="0px"
	 width="253px" height="302px" viewBox="0 0 253 302" enable-background="new 0 0 253 302" xml:space="preserve">
<title>QR Code</title>
<desc>W1-1.86</desc>
<rect fill="#FFFFFF" width="253" height="302"/>
<g id="elements">
	<path d="M11,11h11v11H11V11z M22,11h11v11H22V11z M33,11h11v11H33V11z M44,11h11v11H44V11z M55,11h11v11H55V11z M66,11h11v11H66V11
		z M77,11h11v11H77V11z M121,11h11v11h-11V11z M132,11h11v11h-11V11z M143,11h11v11h-11V11z M165,11h11v11h-11V11z M176,11h11v11
		h-11V11z M187,11h11v11h-11V11z M198,11h11v11h-11V11z M209,11h11v11h-11V11z M220,11h11v11h-11V11z M231,11h11v11h-11V11z M11,22
		h11v11H11V22z M77,22h11v11H77V22z M99,22h11v11H99V22z M110,22h11v11h-11V22z M121,22h11v11h-11V22z M143,22h11v11h-11V22z
		 M165,22h11v11h-11V22z M231,22h11v11h-11V22z M11,33h11v11H11V33z M33,33h11v11H33V33z M44,33h11v11H44V33z M55,33h11v11H55V33z
		 M77,33h11v11H77V33z M121,33h11v11h-11V33z M132,33h11v11h-11V33z M143,33h11v11h-11V33z M165,33h11v11h-11V33z M187,33h11v11h-11
		V33z M198,33h11v11h-11V33z M209,33h11v11h-11V33z M231,33h11v11h-11V33z M11,44h11v11H11V44z M33,44h11v11H33V44z M44,44h11v11H44
		V44z M55,44h11v11H55V44z M77,44h11v11H77V44z M99,44h11v11H99V44z M110,44h11v11h-11V44z M143,44h11v11h-11V44z M165,44h11v11h-11
		V44z M187,44h11v11h-11V44z M198,44h11v11h-11V44z M209,44h11v11h-11V44z M231,44h11v11h-11V44z M11,55h11v11H11V55z M33,55h11v11
		H33V55z M44,55h11v11H44V55z M55,55h11v11H55V55z M77,55h11v11H77V55z M110,55h11v11h-11V55z M143,55h11v11h-11V55z M165,55h11v11
		h-11V55z M187,55h11v11h-11V55z M198,55h11v11h-11V55z M209,55h11v11h-11V55z M231,55h11v11h-11V55z M11,66h11v11H11V66z M77,66h11
		v11H77V66z M99,66h11v11H99V66z M132,66h11v11h-11V66z M165,66h11v11h-11V66z M231,66h11v11h-11V66z M11,77h11v11H11V77z M22,77h11
		v11H22V77z M33,77h11v11H33V77z M44,77h11v11H44V77z M55,77h11v11H55V77z M66,77h11v11H66V77z M77,77h11v11H77V77z M99,77h11v11H99
		V77z M121,77h11v11h-11V77z M143,77h11v11h-11V77z M165,77h11v11h-11V77z M176,77h11v11h-11V77z M187,77h11v11h-11V77z M198,77h11
		v11h-11V77z M209,77h11v11h-11V77z M220,77h11v11h-11V77z M231,77h11v11h-11V77z M110,88h11v11h-11V88z M11,99h11v11H11V99z M22,99
		h11v11H22V99z M33,99h11v11H33V99z M44,99h11v11H44V99z M55,99h11v11H55V99z M77,99h11v11H77V99z M88,99h11v11H88V99z M99,99h11v11
		H99V99z M132,99h11v11h-11V99z M154,99h11v11h-11V99z M176,99h11v11h-11V99z M198,99h11v11h-11V99z M220,99h11v11h-11V99z M11,110
		h11v11H11V110z M33,110h11v11H33V110z M55,110h11v11H55V110z M66,110h11v11H66V110z M88,110h11v11H88V110z M99,110h11v11H99V110z
		 M110,110h11v11h-11V110z M121,110h11v11h-11V110z M132,110h11v11h-11V110z M143,110h11v11h-11V110z M154,110h11v11h-11V110z
		 M165,110h11v11h-11V110z M176,110h11v11h-11V110z M209,110h11v11h-11V110z M220,110h11v11h-11V110z M231,110h11v11h-11V110z
		 M11,121h11v11H11V121z M22,121h11v11H22V121z M44,121h11v11H44V121z M55,121h11v11H55V121z M66,121h11v11H66V121z M77,121h11v11
		H77V121z M88,121h11v11H88V121z M110,121h11v11h-11V121z M121,121h11v11h-11V121z M143,121h11v11h-11V121z M165,121h11v11h-11V121z
		 M176,121h11v11h-11V121z M198,121h11v11h-11V121z M209,121h11v11h-11V121z M44,132h11v11H44V132z M66,132h11v11H66V132z M88,132
		h11v11H88V132z M99,132h11v11H99V132z M110,132h11v11h-11V132z M121,132h11v11h-11V132z M132,132h11v11h-11V132z M143,132h11v11
		h-11V132z M154,132h11v11h-11V132z M165,132h11v11h-11V132z M176,132h11v11h-11V132z M187,132h11v11h-11V132z M209,132h11v11h-11
		V132z M220,132h11v11h-11V132z M231,132h11v11h-11V132z M11,143h11v11H11V143z M22,143h11v11H22V143z M33,143h11v11H33V143z
		 M44,143h11v11H44V143z M66,143h11v11H66V143z M77,143h11v11H77V143z M99,143h11v11H99V143z M121,143h11v11h-11V143z M143,143h11
		v11h-11V143z M220,143h11v11h-11V143z M99,154h11v11H99V154z M110,154h11v11h-11V154z M143,154h11v11h-11V154z M187,154h11v11h-11
		V154z M198,154h11v11h-11V154z M220,154h11v11h-11V154z M11,165h11v11H11V165z M22,165h11v11H22V165z M33,165h11v11H33V165z
		 M44,165h11v11H44V165z M55,165h11v11H55V165z M66,165h11v11H66V165z M77,165h11v11H77V165z M99,165h11v11H99V165z M132,165h11v11
		h-11V165z M154,165h11v11h-11V165z M176,165h11v11h-11V165z M198,165h11v11h-11V165z M209,165h11v11h-11V165z M220,165h11v11h-11
		V165z M11,176h11v11H11V176z M77,176h11v11H77V176z M110,176h11v11h-11V176z M121,176h11v11h-11V176z M176,176h11v11h-11V176z
		 M209,176h11v11h-11V176z M220,176h11v11h-11V176z M231,176h11v11h-11V176z M11,187h11v11H11V187z M33,187h11v11H33V187z M44,187
		h11v11H44V187z M55,187h11v11H55V187z M77,187h11v11H77V187z M99,187h11v11H99V187z M132,187h11v11h-11V187z M154,187h11v11h-11
		V187z M176,187h11v11h-11V187z M187,187h11v11h-11V187z M198,187h11v11h-11V187z M220,187h11v11h-11V187z M11,198h11v11H11V198z
		 M33,198h11v11H33V198z M44,198h11v11H44V198z M55,198h11v11H55V198z M77,198h11v11H77V198z M99,198h11v11H99V198z M121,198h11v11
		h-11V198z M132,198h11v11h-11V198z M143,198h11v11h-11V198z M154,198h11v11h-11V198z M165,198h11v11h-11V198z M187,198h11v11h-11
		V198z M209,198h11v11h-11V198z M11,209h11v11H11V209z M33,209h11v11H33V209z M44,209h11v11H44V209z M55,209h11v11H55V209z M77,209
		h11v11H77V209z M99,209h11v11H99V209z M121,209h11v11h-11V209z M143,209h11v11h-11V209z M165,209h11v11h-11V209z M176,209h11v11
		h-11V209z M198,209h11v11h-11V209z M209,209h11v11h-11V209z M11,220h11v11H11V220z M77,220h11v11H77V220z M99,220h11v11H99V220z
		 M110,220h11v11h-11V220z M132,220h11v11h-11V220z M143,220h11v11h-11V220z M154,220h11v11h-11V220z M165,220h11v11h-11V220z
		 M176,220h11v11h-11V220z M187,220h11v11h-11V220z M209,220h11v11h-11V220z M11,231h11v11H11V231z M22,231h11v11H22V231z M33,231
		h11v11H33V231z M44,231h11v11H44V231z M55,231h11v11H55V231z M66,231h11v11H66V231z M77,231h11v11H77V231z M99,231h11v11H99V231z
		 M110,231h11v11h-11V231z M121,231h11v11h-11V231z M143,231h11v11h-11V231z M187,231h11v11h-11V231z M220,231h11v11h-11V231z"/>
</g>
<text transform="matrix(1 0 0 1 83 283)" font-family="'MyriadPro-Regular'" font-size="21">W1-1.04a</text>
</svg>
